<svg xmlns="http://www.w3.org/2000/svg" xmlns:xlink="http://www.w3.org/1999/xlink" version="1.1" x="0px" y="0px" viewBox="0 0 100 125" enable-background="new 0 0 100 100" xml:space="preserve"><g><path d="M5,59c0,9.9,8.1,18,18,18c8.7,0,16-6.2,17.6-14.5l5.2,0.5c0.1,0,0.1,0,0.2,0c0.6,0,1.1-0.2,1.5-0.6l22.4-24.2l1,4   C64,44.6,59,51.2,59,59c0,9.9,8.1,18,18,18s18-8.1,18-18s-8.1-18-18-18c-0.8,0-1.5,0.1-2.2,0.2L71.6,28H77c1.1,0,2,0.9,2,2   s-0.9,2-2,2c-1.1,0-2,0.9-2,2s0.9,2,2,2c3.3,0,6-2.7,6-6s-2.7-6-6-6h-7.9c-0.6,0-1.2,0.3-1.6,0.8c-0.4,0.5-0.5,1.1-0.4,1.7l1.3,5.5   H40.7l-1-4H44c1.1,0,2-0.9,2-2s-0.9-2-2-2H34c-1.1,0-2,0.9-2,2s0.9,2,2,2h1.6l1.4,5.5l-6,9.4C28.5,41.7,25.9,41,23,41   C13.1,41,5,49.1,5,59z M71.8,46l3.2,13.5c0.2,0.9,1,1.5,1.9,1.5c0.2,0,0.3,0,0.5-0.1c1.1-0.3,1.7-1.3,1.5-2.4l-3.2-13.5   c0.4,0,0.9-0.1,1.3-0.1c7.7,0,14,6.3,14,14s-6.3,14-14,14s-14-6.3-14-14C63,53.1,66.7,48.1,71.8,46z M38.3,38.8l5.1,20L41,58.6   c-0.1-5.5-2.7-10.3-6.7-13.5L38.3,38.8z M37,58.2l-10.5-0.9l5.7-8.9C34.9,50.8,36.7,54.3,37,58.2z M66.4,36L47,56.9L41.7,36H66.4z    M9,59c0-7.7,6.3-14,14-14c2.1,0,4,0.5,5.8,1.3l-7.5,11.7c-0.4,0.6-0.4,1.3-0.1,2c0.3,0.6,0.9,1,1.6,1.1l13.8,1.2   C35.2,68.4,29.6,73,23,73C15.3,73,9,66.7,9,59z"/></g><text x="0" y="115" fill="#000000" font-size="5px" font-weight="bold" font-family="'Helvetica Neue', Helvetica, Arial-Unicode, Arial, Sans-serif">Created by Joel Avery</text><text x="0" y="120" fill="#000000" font-size="5px" font-weight="bold" font-family="'Helvetica Neue', Helvetica, Arial-Unicode, Arial, Sans-serif">from the Noun Project</text></svg>